<svg xmlns="http://www.w3.org/2000/svg" shape-rendering="geometricPrecision" text-rendering="geometricPrecision" image-rendering="optimizeQuality" fill-rule="evenodd" clip-rule="evenodd" viewBox="0 0 512 493.03"><path fill="#0983E0" fill-rule="nonzero" d="M125.195 0h261.61C455.583 0 512 56.416 512 125.195v242.64c0 68.891-56.304 125.195-125.195 125.195h-261.61C56.416 493.03 0 436.614 0 367.835v-242.64C0 56.326 56.349 0 125.195 0z"/><path fill="#88DFF3" d="M125.195 18.969h261.61c58.432 0 106.225 47.816 106.225 106.226v242.64c0 58.409-47.816 106.225-106.225 106.225h-261.61c-58.41 0-106.226-47.793-106.226-106.225v-242.64c0-58.432 47.794-106.226 106.226-106.226z"/><path fill="#A3EDFD" d="M141.365 28.465h223.536c58.432 0 111.937 48.466 111.937 106.226v223.671c0 57.759-54.177 106.225-111.937 106.225H141.365c-57.76 0-106.225-47.794-106.225-106.225V134.691c0-58.432 47.793-106.226 106.225-106.226z"/><path fill="#E8FBFD" d="M309.448 28.465h55.453c58.432 0 111.937 48.376 111.937 106.226v36.729c-17.514-.313-9.765-39.215-22.419-66.695-24.927-54.154-81.589-61.388-144.971-76.26z"/><path fill="#fff" fill-rule="nonzero" d="M302.914 323.155l-14.101 38.436-1.669 3.217a22.551 22.551 0 01-5.249 5.757l-.75.532c-1.96 1.403-4.282 2.588-6.797 3.483-2.419.895-5.37 1.572-8.805 1.935l-9.24.484-13.013-.774-7.499-1.33c-9.675-2.951-12.167-3.967-20.318-10.014a33.523 33.523 0 01-6.023-6.58c-6.58-10.231-9.168-25.954-11.998-37.71l-.774 35.461c-.339 3.7-1.04 6.724-1.935 8.877l-1.064 2.104c-1.596 2.903-3.725 5.153-6.386 6.846-3.193 2.055-6.894 3.12-10.764 3.12h-17.827c-7.498 0-14.223-.823-19.955-2.443l-1.016-.339c-6.289-1.91-11.587-4.862-15.747-8.853-8.224-7.861-12.36-18.77-12.36-32.582 3.072-65.357 12.336-131.634 13.327-196.507-.048-7.523 3.096-13.183 9.361-16.884l5.08-2.274c2.177-.677 4.354-1.064 6.386-1.064h45.402c5.176 0 10.038.46 14.465 1.306a52.108 52.108 0 0113.013 4.354 45.326 45.326 0 0111.078 7.692c3.242 2.975 6.096 6.507 8.515 10.425l.701 1.258c1.911 3.289 3.677 7.015 5.249 11.078 1.669 4.378 3.12 9.095 4.33 14.054l3.314 15.553 6.7 43.443c6.604-24.261 20.681-93.537 31.566-103.914a20.588 20.588 0 017.595-4.161c2.395-.701 5.104-1.088 7.934-1.088h50.603c8.417 0 15.601.992 21.479 2.951 3.169 1.04 6.144 2.394 8.732 3.967 2.806 1.644 5.394 3.773 7.595 6.168 2.177 2.37 4.016 4.983 5.394 7.692l.412.846c1.185 2.54 2.152 5.225 2.781 7.982 1.137 4.959 1.718 10.523 1.718 16.546-2.685 54.811-2.685 152.944-14.029 201.781-.895 2.588-2.25 4.862-3.701 6.531l-.847.919c-2.25 2.249-4.814 3.652-7.692 4.547a23.552 23.552 0 01-6.942 1.016h-17.827c-7.499 0-14.223-.823-19.956-2.443l-1.016-.339c-6.265-1.886-11.538-4.837-15.674-8.804a37.945 37.945 0 01-9.337-13.739c-2.08-4.983-3.096-10.474-3.096-16.304l.677-12.215z"/><path fill="#0983E0" fill-rule="nonzero" d="M330.562 188.812a3804.69 3804.69 0 00-6.652 20.246c-2.685 8.345-5.66 17.464-8.901 27.405a2417.25 2417.25 0 00-10.063 31.615 1367.515 1367.515 0 01-10.546 32.606 1512.192 1512.192 0 01-10.522 30.308c-3.459 9.627-6.603 17.997-9.409 25.132-.871 1.742-2.661 3.072-5.346 4.064-2.709.967-6.99 1.451-12.82 1.451-3.677 0-7.45-.217-11.345-.653-3.894-.435-7.522-1.282-10.86-2.588-3.362-1.306-6.265-3.024-8.756-5.201-2.492-2.152-4.379-4.861-5.685-8.103-3.241-11.03-6.313-23.293-9.24-36.791a2939.667 2939.667 0 01-8.587-41.362c-2.806-14.029-5.563-27.817-8.272-41.338-2.709-13.498-5.467-25.785-8.273-36.791 0 3.023-.096 8.2-.314 15.553-.218 7.353-.435 15.892-.653 25.616-.218 9.724-.484 20.222-.822 31.469a4293.645 4293.645 0 00-.799 32.897 8641.069 8641.069 0 01-.653 29.848c-.218 9.168-.314 16.69-.314 22.52 0 6.482-.387 10.594-1.137 12.336-.75 1.717-2.105 2.588-4.064 2.588h-17.827c-12.312 0-21.02-2.443-26.099-7.305-5.08-4.861-7.62-12.046-7.62-21.552 0-2.588.145-6.966.484-13.134.314-6.168.798-13.449 1.451-21.891.653-8.442 1.355-17.681 2.105-27.72.774-10.062 1.572-20.27 2.443-30.647 1.088-14.053 1.983-25.785 2.757-35.194.75-9.385 1.355-17.222 1.79-23.511.412-6.265.799-11.345 1.113-15.239.339-3.894.556-7.329.653-10.377.121-3.024.218-5.878.339-8.587.097-2.709.145-6.095.145-10.207 0-1.742.653-2.976 1.959-3.726 1.282-.774 2.492-1.136 3.556-1.136h45.402c8.441 0 15.36 1.354 20.754 4.039 5.418 2.709 9.844 6.869 13.303 12.481 3.459 5.636 6.265 12.917 8.418 21.891 2.177 8.974 4.16 19.617 5.999 31.953a5499.587 5499.587 0 016.168 42.644c2.273 16.11 5.249 34.203 8.925 54.304 3.459-13.401 6.362-24.527 8.757-33.405 2.37-8.852 4.378-16.254 5.999-22.205 1.62-5.95 2.974-10.86 4.039-14.755a592.43 592.43 0 002.927-10.86 628.17 628.17 0 012.927-10.861c1.064-3.894 2.37-8.756 3.87-14.586 1.524-5.853 3.41-13.134 5.684-21.891 2.274-8.756 5.128-19.834 8.587-33.234.435-1.307 1.185-2.54 2.274-3.75 1.088-1.185 3.023-1.765 5.829-1.765h50.603c6.918 0 12.481.701 16.69 2.104 4.209 1.403 7.522 3.411 9.893 5.999 2.37 2.588 3.991 5.781 4.862 9.554.871 3.798 1.306 8.176 1.306 13.135 0 4.982-.266 13.037-.822 24.164-.532 11.127-1.282 23.681-2.274 37.613a9690.836 9690.836 0 00-2.903 43.298 3738.616 3738.616 0 01-2.927 41.507c-.967 12.748-1.79 23.56-2.418 32.413-.654 8.877-1.089 14.053-1.307 15.577-.217 1.718-.653 2.975-1.306 3.725s-1.935 1.137-3.894 1.137h-17.827c-12.312 0-21.02-2.443-26.1-7.305-5.079-4.861-7.619-11.175-7.619-18.964 0-2.37.266-6.7.798-12.965.556-6.264 1.258-13.618 2.129-22.059a3723.29 3723.29 0 012.902-27.721 1474.52 1474.52 0 002.927-29.994 3696.74 3696.74 0 002.419-29.026c.774-9.409 1.355-17.657 1.79-24.793z"/></svg>